<svg xmlns="http://www.w3.org/2000/svg" xmlns:xlink="http://www.w3.org/1999/xlink" xmlns:lucid="lucid" width="820" height="774.8"><g transform="translate(-180 -20)" lucid:page-tab-id="0_0"><path d="M200 40h780v734.8H200z" stroke="#248814" stroke-width="2" fill="#fff" fill-opacity="0"/><path d="M200 40h56v56h-56V40z" stroke="#fff" stroke-opacity="0" fill="#248814"/><path d="M231.76 68.3h-1.18v-1.1c-.12-1.73-1.48-3.07-3.2-3.2-1.9-.13-3.54 1.3-3.67 3.2v1.07h-1.17c-.44 0-.8.36-.8.8v6.13c0 .44.36.8.8.8h9.23c.44 0 .8-.36.8-.8v-6.1c0-.44-.36-.8-.8-.8zm-6.4-1.06c.1-1.02 1-1.77 2-1.67.9.08 1.58.77 1.67 1.67v1.06h-3.72zm5.65 7.08h-7.67V69.9h7.63z" stroke="#fff" stroke-opacity="0" fill="#fff"/><path d="M242.27 65.74c-.08-2.44-1.58-4.47-3.87-5.3-1.58-.46-3.16-.13-4.4.9-.68-1.44-1.47-2.6-2.6-3.75-3.24-3.36-7.94-4.3-12.18-2.4-4.04 1.9-6.4 5.63-6.54 10.05v.7c-3.4.98-5.66 4.08-5.5 7.65v.63c.4 4.28 3.92 7.52 8.2 7.47h26s7.42-.63 7.42-8.1c.04-3.9-2.66-7.2-6.53-7.86zm-.96 14.4h-25.9c-3.47.05-6.3-2.53-6.6-5.97v-.52c-.15-3.05 1.93-5.7 4.92-6.3.38-.12.63-.48.6-.9-.06-.4-.06-.73 0-1.14.07-3.78 2.1-6.94 5.52-8.6 1.25-.56 2.4-.8 3.83-.84 2.62.08 4.87 1.04 6.7 2.94 1.25 1.3 2.04 2.6 2.62 4.3.03.15.1.28.24.37.37.27.87.2 1.12-.17.83-1.18 2.25-1.67 3.62-1.3 1.8.72 2.87 2.4 2.83 4.32-.07.4.22.82.64.9 3.57.36 6.2 3.55 5.82 7.12-.3 3.13-2.7 5.52-5.82 5.85z" stroke="#fff" stroke-opacity="0" fill="#fff"/><use xlink:href="#a" transform="matrix(1,0,0,1,271,60) translate(0 14.4)"/><use xlink:href="#b" transform="matrix(1,0,0,1,271,60) translate(55.5 14.4)"/><use xlink:href="#c" transform="matrix(1,0,0,1,271,60) translate(116.4 14.4)"/><path d="M240 140h220v440H240z" fill="#fff" fill-opacity="0"/><path d="M251.8 140h7.84m7.86 0h7.86m7.85 0h7.87m7.86 0h7.86m7.84 0h7.86m7.86 0h7.85m7.87 0h7.86m7.86 0h7.84m7.86 0h7.86m7.85 0h7.87m7.86 0h7.86m7.84 0h7.86m7.86 0h7.85m7.87 0H460v3.93m0 7.86v7.84m0 7.86v7.86m0 7.85v7.87m0 7.86v7.86m0 7.84v7.86m0 7.86v7.85m0 7.87v7.86m0 7.86v7.84m0 7.86v7.86m0 7.85v7.87m0 7.86v7.86m0 7.84v7.86m0 7.86v7.85m0 7.87v7.86m0 7.86v7.84m0 7.86v7.86m0 7.85v7.87m0 7.86v7.86m0 7.84v7.86m0 7.86v7.85m0 7.87v7.86m0 7.86v7.84m0 7.86v7.86m0 7.85v7.87m0 7.86v7.86m0 7.84v7.86m0 7.86v7.85m0 7.87V580h-3.93m-7.86 0h-7.84m-7.86 0h-7.86m-7.85 0h-7.87m-7.86 0h-7.86m-7.84 0h-7.86m-7.86 0h-7.85m-7.87 0h-7.86m-7.86 0h-7.84m-7.86 0h-7.86m-7.85 0h-7.87m-7.86 0h-7.86m-7.84 0h-7.86m-7.86 0h-7.85m-7.87 0H240v-3.93m0-7.86v-7.84m0-7.86v-7.86m0-7.85v-7.87m0-7.86v-7.86m0-7.84v-7.86m0-7.86v-7.85m0-7.87v-7.86m0-7.86v-7.84m0-7.86v-7.86m0-7.85v-7.87m0-7.86v-7.86m0-7.84v-7.86m0-7.86v-7.85m0-7.87v-7.86m0-7.86v-7.84m0-7.86v-7.86m0-7.85v-7.87m0-7.86v-7.86m0-7.84v-7.86m0-7.86v-7.85m0-7.87v-7.86m0-7.86v-7.84m0-7.86v-7.86m0-7.85v-7.87m0-7.86v-7.86m0-7.84v-7.86m0-7.86v-7.85m0-7.87V140h3.93" stroke="#147eba" stroke-width="2" fill="none"/><use xlink:href="#d" transform="matrix(1,0,0,1,240,160) translate(36.32499999999999 14.4)"/><use xlink:href="#e" transform="matrix(1,0,0,1,240,160) translate(125.725 14.4)"/><use xlink:href="#f" transform="matrix(1,0,0,1,240,160) translate(171.675 14.4)"/><path d="M480 140h220v440H480z" fill="#fff" fill-opacity="0"/><path d="M491.8 140h7.84m7.86 0h7.86m7.85 0h7.87m7.86 0h7.86m7.84 0h7.86m7.86 0h7.85m7.87 0h7.86m7.86 0h7.84m7.86 0h7.86m7.85 0h7.87m7.86 0h7.86m7.84 0h7.86m7.86 0h7.85m7.87 0H700v4.07m0 8.15v8.15m0 8.15v8.15m0 8.14v8.16m0 8.15v8.16m0 8.15v8.16m0 8.14v8.15m0 8.15v8.15m0 8.15v8.14m0 8.15v8.14m0 8.15v8.14m0 8.15v8.13m0 8.15v8.15m0 8.15v8.15m0 8.14v8.15m0 8.15v8.15m0 8.15v8.14m0 8.16v8.15m0 8.16v8.15m0 8.16v8.14m0 8.15V470m0 8.15v8.15m0 8.14v8.15m0 8.14v8.15m0 8.14v8.15m0 8.13v8.15m0 8.15v8.15m0 8.15V580h-3.93m-7.86 0h-7.84m-7.86 0h-7.86m-7.85 0h-7.87m-7.86 0h-7.86m-7.84 0h-7.86m-7.86 0h-7.85m-7.87 0h-7.86m-7.86 0h-7.84m-7.86 0h-7.86m-7.85 0h-7.87m-7.86 0h-7.86m-7.84 0h-7.86m-7.86 0h-7.85m-7.87 0H480v-4.07m0-8.15v-8.15m0-8.15v-8.15m0-8.14v-8.16m0-8.15v-8.16m0-8.15v-8.16m0-8.14v-8.15m0-8.15v-8.15m0-8.15v-8.14m0-8.15v-8.14m0-8.15v-8.14m0-8.15v-8.13m0-8.15v-8.15m0-8.15v-8.15m0-8.14v-8.15m0-8.15v-8.15m0-8.15v-8.14m0-8.16v-8.15m0-8.16v-8.15m0-8.16v-8.14m0-8.15V250m0-8.15v-8.15m0-8.14v-8.15m0-8.14v-8.15m0-8.14v-8.15m0-8.13v-8.15m0-8.15v-8.15m0-8.15V140h3.93" stroke="#147eba" stroke-width="2" fill="none"/><use xlink:href="#d" transform="matrix(1,0,0,1,480,160) translate(36.32499999999999 14.4)"/><use xlink:href="#e" transform="matrix(1,0,0,1,480,160) translate(125.725 14.4)"/><use xlink:href="#g" transform="matrix(1,0,0,1,480,160) translate(171.675 14.4)"/><path d="M720 140h220v440H720z" fill="#fff" fill-opacity="0"/><path d="M731.8 140h7.84m7.86 0h7.86m7.85 0h7.87m7.86 0h7.86m7.84 0h7.86m7.86 0h7.85m7.87 0h7.86m7.86 0h7.84m7.86 0h7.86m7.85 0h7.87m7.86 0h7.86m7.84 0h7.86m7.86 0h7.85m7.87 0H940v3.93m0 7.86v7.84m0 7.86v7.86m0 7.85v7.87m0 7.86v7.86m0 7.84v7.86m0 7.86v7.85m0 7.87v7.86m0 7.86v7.84m0 7.86v7.86m0 7.85v7.87m0 7.86v7.86m0 7.84v7.86m0 7.86v7.85m0 7.87v7.86m0 7.86v7.84m0 7.86v7.86m0 7.85v7.87m0 7.86v7.86m0 7.84v7.86m0 7.86v7.85m0 7.87v7.86m0 7.86v7.84m0 7.86v7.86m0 7.85v7.87m0 7.86v7.86m0 7.84v7.86m0 7.86v7.85m0 7.87V580h-3.93m-7.86 0h-7.84m-7.86 0h-7.86m-7.85 0h-7.87m-7.86 0h-7.86m-7.84 0h-7.86m-7.86 0h-7.85m-7.87 0h-7.86m-7.86 0h-7.84m-7.86 0h-7.86m-7.85 0h-7.87m-7.86 0h-7.86m-7.84 0h-7.86m-7.86 0h-7.85m-7.87 0H720v-3.93m0-7.86v-7.84m0-7.86v-7.86m0-7.85v-7.87m0-7.86v-7.86m0-7.84v-7.86m0-7.86v-7.85m0-7.87v-7.86m0-7.86v-7.84m0-7.86v-7.86m0-7.85v-7.87m0-7.86v-7.86m0-7.84v-7.86m0-7.86v-7.85m0-7.87v-7.86m0-7.86v-7.84m0-7.86v-7.86m0-7.85v-7.87m0-7.86v-7.86m0-7.84v-7.86m0-7.86v-7.85m0-7.87v-7.86m0-7.86v-7.84m0-7.86v-7.86m0-7.85v-7.87m0-7.86v-7.86m0-7.84v-7.86m0-7.86v-7.85m0-7.87V140h3.93" stroke="#147eba" stroke-width="2" fill="none"/><use xlink:href="#d" transform="matrix(1,0,0,1,720,160) translate(35.849999999999994 14.4)"/><use xlink:href="#e" transform="matrix(1,0,0,1,720,160) translate(125.25 14.4)"/><use xlink:href="#h" transform="matrix(1,0,0,1,720,160) translate(171.20000000000002 14.4)"/><path d="M260 200h180v240H260z" fill="#147eba" fill-opacity=".13"/><path d="M260 200h56v56h-56v-56z" stroke="#fff" stroke-opacity="0" fill="#147eba"/><path d="M303.38 222.18c-.15-.17-.34-.25-.56-.25h-5.15v-5.58c-.03-2.54-.96-4.7-2.84-6.4-1.9-1.84-4.15-2.75-6.77-2.75-2.65 0-4.9.83-6.8 2.62-1.9 1.7-2.87 3.87-2.9 6.4v5.66h-5.15c-.24 0-.43.1-.58.25-.16.17-.22.34-.22.6V248c0 .43.34.8.8.8h29.6c.46 0 .8-.37.8-.8v-25.28c0-.2-.06-.38-.22-.54zm-23.46-5.9c.03-2.13.8-3.88 2.37-5.3 1.6-1.5 3.52-2.2 5.73-2.2 2.22 0 4.12.75 5.7 2.25 1.54 1.4 2.32 3.2 2.32 5.32v5.58H279.9zm22.1 30.94h-28.03v-23.7h28z" stroke="#fff" stroke-opacity="0" fill="#fff"/><path d="M287.2 237.3v6.25h1.6v-6.23c2.13-.4 3.62-2.2 3.63-4.35 0-2.43-1.97-4.4-4.4-4.43-2.2-.03-4.06 1.5-4.44 3.68-.42 2.4 1.2 4.68 3.6 5.1zm.82-7.15c.78 0 1.44.27 2 .82.54.56.82 1.22.8 2 .03 1.55-1.2 2.8-2.74 2.82h-.06c-1.56.1-2.92-1.06-3.04-2.62-.12-1.56 1.05-2.93 2.6-3.03.16-.02.28-.02.44 0z" stroke="#fff" stroke-opacity="0" fill="#fff"/><use xlink:href="#i" transform="matrix(1,0,0,1,331,220) translate(0 12.622222222222224)"/><use xlink:href="#j" transform="matrix(1,0,0,1,331,220) translate(53.38148148148148 12.622222222222224)"/><path d="M380.97 360H334.9c-.95 0-1.7-.78-1.7-1.68V297c0-.9.75-1.68 1.7-1.68h46.07c.94 0 1.68.78 1.68 1.68v61.32c0 .9-.74 1.68-1.68 1.68zm-44.35-3.43h42.62v-57.82h-42.62z" stroke="#fff" stroke-opacity="0" fill="#d86613"/><path d="M348.96 314.04h-7.67c-.95 0-1.72-.76-1.72-1.7v-7.66c0-.94.77-1.7 1.7-1.7h7.68c.94 0 1.7.76 1.7 1.7v7.66c0 .94-.76 1.7-1.7 1.7zm-5.96-3.4h4.25v-4.25H343zM348.96 331.9h-7.67c-.95 0-1.72-.75-1.72-1.7v-7.65c0-.94.77-1.7 1.7-1.7h7.68c.94 0 1.7.76 1.7 1.7v7.66c0 .95-.76 1.7-1.7 1.7zm-5.96-3.4h4.25v-4.24H343zM348.96 349.8h-7.67c-.95 0-1.72-.76-1.72-1.7v-7.67c0-.94.77-1.7 1.7-1.7h7.68c.94 0 1.7.76 1.7 1.7v7.67c0 .94-.76 1.7-1.7 1.7zm-5.96-3.4h4.25v-4.27H343zM352.8 306.8h23.05v3.4H352.8v-3.4zM352.8 324.66h23.05v3.4H352.8v-3.4zM352.8 342.55h23.05v3.4H352.8v-3.4z" stroke="#fff" stroke-opacity="0" fill="#d86613"/><path d="M334.93 352.34h-7.72c-.92 0-1.67-.78-1.67-1.68v-61.32c0-.9.75-1.68 1.68-1.68h46.1c.94 0 1.68.78 1.68 1.68v7.7h-3.4v-5.95h-42.63v57.8h5.98z" stroke="#fff" stroke-opacity="0" fill="#d86613"/><path d="M326.74 344.7h-7.7c-.95 0-1.7-.78-1.7-1.68v-61.34c0-.9.75-1.68 1.7-1.68h46.07c.95 0 1.7.78 1.7 1.68v7.7h-3.42v-5.95h-42.62v57.84h5.98z" stroke="#fff" stroke-opacity="0" fill="#d86613"/><path d="M334.93 352.34h-7.72c-.92 0-1.67-.78-1.67-1.68v-61.32c0-.9.75-1.68 1.68-1.68h46.1c.94 0 1.68.78 1.68 1.68v63z" stroke="#fff" stroke-opacity="0" fill="#fff" fill-opacity="0"/><path d="M326.74 344.7h-7.7c-.95 0-1.7-.78-1.7-1.68v-61.34c0-.9.75-1.68 1.7-1.68h46.07c.95 0 1.7.78 1.7 1.68v63.02z" stroke="#fff" stroke-opacity="0" fill="#fff" fill-opacity="0"/><use xlink:href="#k" transform="matrix(1,0,0,1,287.35,369) translate(12.074999999999996 14.4)"/><use xlink:href="#l" transform="matrix(1,0,0,1,287.35,369) translate(54.025 14.4)"/><use xlink:href="#m" transform="matrix(1,0,0,1,287.35,369) translate(18.574999999999996 36)"/><use xlink:href="#n" transform="matrix(1,0,0,1,287.35,369) translate(55.475 36)"/><use xlink:href="#o" transform="matrix(1,0,0,1,287.35,369) translate(70.475 36)"/><use xlink:href="#p" transform="matrix(1,0,0,1,287.35,369) translate(21.574999999999996 57.6)"/><use xlink:href="#q" transform="matrix(1,0,0,1,287.35,369) translate(92.42500000000001 57.6)"/><path d="M590 600c-22.08 0-40 17.92-40 40s17.92 40 40 40 40-17.92 40-40-17.92-40-40-40zm0 76.8c-20.32 0-36.8-16.48-36.8-36.8 0-20.32 16.48-36.8 36.8-36.8 20.32 0 36.8 16.48 36.8 36.8 0 20.32-16.48 36.8-36.8 36.8z" stroke="#fff" stroke-opacity="0" stroke-width="3" fill="#693cc5"/><path d="M575.6 649.6h-16c-.9 0-1.6-.7-1.6-1.6v-16c0-.9.7-1.6 1.6-1.6h16c.9 0 1.6.7 1.6 1.6v16c0 .9-.7 1.6-1.6 1.6zm-14.4-3.2H574v-12.8h-12.8zM612.4 628.8h-9.6c-.88 0-1.6-.72-1.6-1.6v-9.6c0-.88.72-1.6 1.6-1.6h9.6c.88 0 1.6.72 1.6 1.6v9.6c0 .88-.72 1.6-1.6 1.6zm-8-3.2h6.4v-6.4h-6.4zM612.4 646.4h-9.6c-.88 0-1.6-.72-1.6-1.6v-9.6c0-.88.72-1.6 1.6-1.6h9.6c.88 0 1.6.72 1.6 1.6v9.6c0 .88-.72 1.6-1.6 1.6zm-8-3.2h6.4v-6.4h-6.4zM612.4 664h-9.6c-.88 0-1.6-.72-1.6-1.6v-9.6c0-.88.72-1.6 1.6-1.6h9.6c.88 0 1.6.72 1.6 1.6v9.6c0 .88-.72 1.6-1.6 1.6zm-8-3.2h6.4v-6.4h-6.4zM599.13 641.13l-5.38 5.38-2.27-2.24 2.65-2.66H580.4v-3.2h13.73l-2.65-2.66 2.27-2.25 5.38 5.37c.63.62.63 1.62.02 2.26h-.02zM598.25 623.22l-1.98 7.35-3.06-.84 1.02-3.8-14.2 7.48-1.48-2.8 13.86-7.32-3.45-.88.83-3.2 7.36 2c.86.2 1.37 1.08 1.13 1.94 0 .02 0 .05-.02.08zM597.14 658.76l-7.35 2.04-.86-3.2 3.45-.94-13.87-7.32 1.48-2.8 14.2 7.48-1-3.75 3.1-.83 1.97 7.35c.24.83-.28 1.72-1.13 1.94v.02z" stroke="#fff" stroke-opacity="0" stroke-width="3" fill="#693cc5"/><use xlink:href="#r" transform="matrix(1,0,0,1,520,689) translate(14.574999999999996 14.4)"/><use xlink:href="#s" transform="matrix(1,0,0,1,520,689) translate(85.42500000000001 14.4)"/><use xlink:href="#t" transform="matrix(1,0,0,1,520,689) translate(34.55 36)"/><path d="M350 510c-13.8 0-25-11.2-25-25s11.2-25 25-25 25 11.2 25 25-11.2 25-25 25zm0-47.85c-12.65 0-22.85 10.2-22.85 22.85 0 12.65 10.2 22.85 22.85 22.85 12.65 0 22.85-10.2 22.85-22.85 0-12.65-10.2-22.85-22.85-22.85z" stroke="#fff" stroke-opacity="0" fill="#693cc5"/><path d="M338.03 498.03h-3.6v-2.12h2.54v-19.8h-2.53v-2.13h3.6c.58 0 1.06.48 1.06 1.06v21.94c0 .58-.48 1.06-1.07 1.06zM362.96 496.04h-4.98c-.6 0-1.05-.48-1.05-1.06v-1.93h-1.87v1.93c0 .58-.5 1.06-1.06 1.06h-9.98c-.6 0-1.06-.48-1.06-1.06v-1.93H342c-.56 0-1.04-.48-1.04-1.06V477c0-.58.48-1.06 1.05-1.06h24.97c.56 0 1.05.48 1.05 1.06V492c0 .57-.5 1.05-1.05 1.05h-2.93v1.93c0 .58-.48 1.06-1.08 1.06zm-3.92-2.13h2.86V492c0-.62.5-1.08 1.06-1.08h2.92V478.1H343.1v12.82h.92c.6 0 1.05.46 1.05 1.07v1.9h7.85V492c0-.62.5-1.08 1.08-1.08h3.98c.6 0 1.06.46 1.06 1.07z" stroke="#fff" stroke-opacity="0" fill="#693cc5"/><path d="M360.97 489.05H347c-.57 0-1.05-.47-1.05-1.06v-7c0-.58.48-1.05 1.06-1.05h13.97c.58 0 1.06.47 1.06 1.06v7c0 .58-.48 1.05-1.06 1.05zm-12.9-2.13h11.84v-4.84h-11.83z" stroke="#fff" stroke-opacity="0" fill="#693cc5"/><path d="M352.93 481h2.12v7h-2.12v-7z" stroke="#fff" stroke-opacity="0" fill="#693cc5"/><path d="M351 639h35.24v2H349V528.5h2zm198 0v2H445.8v-2z"/><path d="M550 640l.06 1h-1.1v-2h1.08zM354.64 527.5h-9.28l4.64-14.26z"/><path d="M356 528.5h-12l6-18.5zm-9.26-2h6.52L350 516.47z"/><use xlink:href="#u" transform="matrix(1,0,0,1,386.24291520981103,630.5333333333333) translate(0 12.622222222222224)"/><use xlink:href="#v" transform="matrix(1,0,0,1,386.24291520981103,630.5333333333333) translate(4.382716049382716 12.622222222222224)"/><use xlink:href="#w" transform="matrix(1,0,0,1,386.24291520981103,630.5333333333333) translate(42.03024691358024 12.622222222222224)"/><path d="M590 510c-13.8 0-25-11.2-25-25s11.2-25 25-25 25 11.2 25 25-11.2 25-25 25zm0-47.85c-12.65 0-22.85 10.2-22.85 22.85 0 12.65 10.2 22.85 22.85 22.85 12.65 0 22.85-10.2 22.85-22.85 0-12.65-10.2-22.85-22.85-22.85z" stroke="#fff" stroke-opacity="0" fill="#693cc5"/><path d="M578.03 498.03h-3.6v-2.12h2.54v-19.8h-2.53v-2.13h3.6c.58 0 1.06.48 1.06 1.06v21.94c0 .58-.48 1.06-1.07 1.06zM602.96 496.04h-4.98c-.6 0-1.05-.48-1.05-1.06v-1.93h-1.87v1.93c0 .58-.5 1.06-1.06 1.06h-9.98c-.6 0-1.06-.48-1.06-1.06v-1.93H582c-.56 0-1.04-.48-1.04-1.06V477c0-.58.48-1.06 1.05-1.06h24.97c.56 0 1.05.48 1.05 1.06V492c0 .57-.5 1.05-1.05 1.05h-2.93v1.93c0 .58-.48 1.06-1.08 1.06zm-3.92-2.13h2.86V492c0-.62.5-1.08 1.06-1.08h2.92V478.1H583.1v12.82h.92c.6 0 1.05.46 1.05 1.07v1.9h7.85V492c0-.62.5-1.08 1.08-1.08h3.98c.6 0 1.06.46 1.06 1.07z" stroke="#fff" stroke-opacity="0" fill="#693cc5"/><path d="M600.97 489.05H587c-.57 0-1.05-.47-1.05-1.06v-7c0-.58.48-1.05 1.06-1.05h13.97c.58 0 1.06.47 1.06 1.06v7c0 .58-.48 1.05-1.06 1.05zm-12.9-2.13h11.84v-4.84h-11.83z" stroke="#fff" stroke-opacity="0" fill="#693cc5"/><path d="M592.93 481h2.12v7h-2.12v-7z" stroke="#fff" stroke-opacity="0" fill="#693cc5"/><path d="M591 599h-2v-34.53h2zm0-53.47h-2V528.5h2z"/><path d="M591 600.04l-1-.04-1 .06v-1.1h2zM594.64 527.5h-9.28l4.64-14.26z"/><path d="M596 528.5h-12l6-18.5zm-9.26-2h6.52L590 516.47z"/><use xlink:href="#x" transform="matrix(1,0,0,1,564.6021604938271,545.5333333333333) translate(0 12.622222222222224)"/><use xlink:href="#w" transform="matrix(1,0,0,1,564.6021604938271,545.5333333333333) translate(33.26481481481481 12.622222222222224)"/><path d="M540 440h100v20H540z" stroke="#000" stroke-opacity="0" stroke-width="2" fill="#fff" fill-opacity="0"/><use xlink:href="#y" transform="matrix(1,0,0,1,545,445) translate(30.525 14.4)"/><path d="M300 440h100v20H300z" stroke="#000" stroke-opacity="0" stroke-width="2" fill="#fff" fill-opacity="0"/><use xlink:href="#y" transform="matrix(1,0,0,1,305,445) translate(30.525 14.4)"/><path d="M830 510c-13.8 0-25-11.2-25-25s11.2-25 25-25 25 11.2 25 25-11.2 25-25 25zm0-47.85c-12.65 0-22.85 10.2-22.85 22.85 0 12.65 10.2 22.85 22.85 22.85 12.65 0 22.85-10.2 22.85-22.85 0-12.65-10.2-22.85-22.85-22.85z" stroke="#fff" stroke-opacity="0" fill="#693cc5"/><path d="M818.03 498.03h-3.6v-2.12h2.54v-19.8h-2.53v-2.13h3.6c.58 0 1.06.48 1.06 1.06v21.94c0 .58-.48 1.06-1.07 1.06zM842.96 496.04h-4.98c-.6 0-1.05-.48-1.05-1.06v-1.93h-1.87v1.93c0 .58-.5 1.06-1.06 1.06h-9.98c-.6 0-1.06-.48-1.06-1.06v-1.93H822c-.56 0-1.04-.48-1.04-1.06V477c0-.58.48-1.06 1.05-1.06h24.97c.56 0 1.05.48 1.05 1.06V492c0 .57-.5 1.05-1.05 1.05h-2.93v1.93c0 .58-.48 1.06-1.08 1.06zm-3.92-2.13h2.86V492c0-.62.5-1.08 1.06-1.08h2.92V478.1H823.1v12.82h.92c.6 0 1.05.46 1.05 1.07v1.9h7.85V492c0-.62.5-1.08 1.08-1.08h3.98c.6 0 1.06.46 1.06 1.07z" stroke="#fff" stroke-opacity="0" fill="#693cc5"/><path d="M840.97 489.05H827c-.57 0-1.05-.47-1.05-1.06v-7c0-.58.48-1.05 1.06-1.05h13.97c.58 0 1.06.47 1.06 1.06v7c0 .58-.48 1.05-1.06 1.05zm-12.9-2.13h11.84v-4.84h-11.83z" stroke="#fff" stroke-opacity="0" fill="#693cc5"/><path d="M832.93 481h2.12v7h-2.12v-7z" stroke="#fff" stroke-opacity="0" fill="#693cc5"/><path d="M769.6 641H631v-2h138.6zm61.4 0h-10.6v-2h8.6V528.5h2z"/><path d="M631.03 641h-1.07l.04-1-.06-1h1.1zM834.64 527.5h-9.28l4.64-14.26z"/><path d="M836 528.5h-12l6-18.5zm-9.26-2h6.52L830 516.47z"/><use xlink:href="#x" transform="matrix(1,0,0,1,769.6021604938271,630.5333333333333) translate(0 12.622222222222224)"/><use xlink:href="#w" transform="matrix(1,0,0,1,769.6021604938271,630.5333333333333) translate(33.26481481481481 12.622222222222224)"/><path d="M780 440h100v20H780z" stroke="#000" stroke-opacity="0" stroke-width="2" fill="#fff" fill-opacity="0"/><use xlink:href="#y" transform="matrix(1,0,0,1,785,445) translate(30.525 14.4)"/><path d="M740 200h180v240H740z" fill="#147eba" fill-opacity=".13"/><path d="M740 200h56v56h-56v-56z" stroke="#fff" stroke-opacity="0" fill="#147eba"/><path d="M783.38 222.18c-.15-.17-.34-.25-.56-.25h-5.15v-5.58c-.03-2.54-.96-4.7-2.84-6.4-1.9-1.84-4.15-2.75-6.77-2.75-2.65 0-4.9.83-6.8 2.62-1.9 1.7-2.87 3.87-2.9 6.4v5.66h-5.15c-.24 0-.43.1-.58.25-.16.17-.22.34-.22.6V248c0 .43.34.8.8.8h29.6c.46 0 .8-.37.8-.8v-25.28c0-.2-.06-.38-.22-.54zm-23.46-5.9c.03-2.13.8-3.88 2.37-5.3 1.6-1.5 3.52-2.2 5.73-2.2 2.22 0 4.12.75 5.7 2.25 1.54 1.4 2.32 3.2 2.32 5.32v5.58H759.9zm22.1 30.94h-28.03v-23.7h28z" stroke="#fff" stroke-opacity="0" fill="#fff"/><path d="M767.2 237.3v6.25h1.6v-6.23c2.13-.4 3.62-2.2 3.63-4.35 0-2.43-1.97-4.4-4.4-4.43-2.2-.03-4.06 1.5-4.44 3.68-.42 2.4 1.2 4.68 3.6 5.1zm.82-7.15c.78 0 1.44.27 2 .82.54.56.82 1.22.8 2 .03 1.55-1.2 2.8-2.74 2.82h-.06c-1.56.1-2.92-1.06-3.04-2.62-.12-1.56 1.05-2.93 2.6-3.03.16-.02.28-.02.44 0z" stroke="#fff" stroke-opacity="0" fill="#fff"/><use xlink:href="#i" transform="matrix(1,0,0,1,811,220) translate(0 12.622222222222224)"/><use xlink:href="#j" transform="matrix(1,0,0,1,811,220) translate(53.38148148148148 12.622222222222224)"/><path d="M510 200h180v240H510z" fill="#147eba" fill-opacity=".13"/><path d="M510 200h56v56h-56v-56z" stroke="#fff" stroke-opacity="0" fill="#147eba"/><path d="M553.38 222.18c-.15-.17-.34-.25-.56-.25h-5.15v-5.58c-.03-2.54-.96-4.7-2.84-6.4-1.9-1.84-4.15-2.75-6.77-2.75-2.65 0-4.9.83-6.8 2.62-1.9 1.7-2.87 3.87-2.9 6.4v5.66h-5.15c-.24 0-.43.1-.58.25-.16.17-.22.34-.22.6V248c0 .43.34.8.8.8h29.6c.46 0 .8-.37.8-.8v-25.28c0-.2-.06-.38-.22-.54zm-23.46-5.9c.03-2.13.8-3.88 2.37-5.3 1.6-1.5 3.52-2.2 5.73-2.2 2.22 0 4.12.75 5.7 2.25 1.54 1.4 2.32 3.2 2.32 5.32v5.58H529.9zm22.1 30.94h-28.03v-23.7h28z" stroke="#fff" stroke-opacity="0" fill="#fff"/><path d="M537.2 237.3v6.25h1.6v-6.23c2.13-.4 3.62-2.2 3.63-4.35 0-2.43-1.97-4.4-4.4-4.43-2.2-.03-4.06 1.5-4.44 3.68-.42 2.4 1.2 4.68 3.6 5.1zm.82-7.15c.78 0 1.44.27 2 .82.54.56.82 1.22.8 2 .03 1.55-1.2 2.8-2.74 2.82h-.06c-1.56.1-2.92-1.06-3.04-2.62-.12-1.56 1.05-2.93 2.6-3.03.16-.02.28-.02.44 0z" stroke="#fff" stroke-opacity="0" fill="#fff"/><use xlink:href="#i" transform="matrix(1,0,0,1,581,220) translate(0 12.622222222222224)"/><use xlink:href="#j" transform="matrix(1,0,0,1,581,220) translate(53.38148148148148 12.622222222222224)"/><path d="M628.32 360h-46.08c-.94 0-1.68-.78-1.68-1.68V297c0-.9.74-1.68 1.68-1.68h46.08c.94 0 1.68.78 1.68 1.68v61.32c0 .9-.74 1.68-1.68 1.68zm-44.35-3.43h42.62v-57.82h-42.63z" stroke="#fff" stroke-opacity="0" fill="#d86613"/><path d="M596.3 314.04h-7.66c-.94 0-1.7-.76-1.7-1.7v-7.66c0-.94.76-1.7 1.7-1.7h7.67c.95 0 1.7.76 1.7 1.7v7.66c0 .94-.75 1.7-1.7 1.7zm-5.95-3.4h4.25v-4.25h-4.25zM596.3 331.9h-7.66c-.94 0-1.7-.75-1.7-1.7v-7.65c0-.94.76-1.7 1.7-1.7h7.67c.95 0 1.7.76 1.7 1.7v7.66c0 .95-.75 1.7-1.7 1.7zm-5.95-3.4h4.25v-4.24h-4.25zM596.3 349.8h-7.66c-.94 0-1.7-.76-1.7-1.7v-7.67c0-.94.76-1.7 1.7-1.7h7.67c.95 0 1.7.76 1.7 1.7v7.67c0 .94-.75 1.7-1.7 1.7zm-5.95-3.4h4.25v-4.27h-4.25zM600.16 306.8h23.04v3.4h-23.04v-3.4zM600.16 324.66h23.04v3.4h-23.04v-3.4zM600.16 342.55h23.04v3.4h-23.04v-3.4z" stroke="#fff" stroke-opacity="0" fill="#d86613"/><path d="M582.28 352.34h-7.72c-.93 0-1.68-.78-1.68-1.68v-61.32c0-.9.75-1.68 1.68-1.68h46.1c.93 0 1.67.78 1.67 1.68v7.7h-3.4v-5.95H576.3v57.8h5.98z" stroke="#fff" stroke-opacity="0" fill="#d86613"/><path d="M574.1 344.7h-7.72c-.94 0-1.68-.78-1.68-1.68v-61.34c0-.9.74-1.68 1.68-1.68h46.08c.94 0 1.68.78 1.68 1.68v7.7h-3.4v-5.95H568.1v57.84h6z" stroke="#fff" stroke-opacity="0" fill="#d86613"/><path d="M582.28 352.34h-7.72c-.93 0-1.68-.78-1.68-1.68v-61.32c0-.9.75-1.68 1.68-1.68h46.1c.93 0 1.67.78 1.67 1.68v63z" stroke="#fff" stroke-opacity="0" fill="#fff" fill-opacity="0"/><path d="M574.1 344.7h-7.72c-.94 0-1.68-.78-1.68-1.68v-61.34c0-.9.74-1.68 1.68-1.68h46.08c.94 0 1.68.78 1.68 1.68v63.02z" stroke="#fff" stroke-opacity="0" fill="#fff" fill-opacity="0"/><use xlink:href="#k" transform="matrix(1,0,0,1,534.7,369) translate(12.074999999999996 14.4)"/><use xlink:href="#l" transform="matrix(1,0,0,1,534.7,369) translate(54.025 14.4)"/><use xlink:href="#m" transform="matrix(1,0,0,1,534.7,369) translate(18.574999999999996 36)"/><use xlink:href="#n" transform="matrix(1,0,0,1,534.7,369) translate(55.475 36)"/><use xlink:href="#o" transform="matrix(1,0,0,1,534.7,369) translate(70.475 36)"/><use xlink:href="#p" transform="matrix(1,0,0,1,534.7,369) translate(21.574999999999996 57.6)"/><use xlink:href="#z" transform="matrix(1,0,0,1,534.7,369) translate(92.42500000000001 57.6)"/><path d="M860.97 360H814.9c-.95 0-1.7-.78-1.7-1.68V297c0-.9.75-1.68 1.7-1.68h46.07c.94 0 1.68.78 1.68 1.68v61.32c0 .9-.74 1.68-1.68 1.68zm-44.35-3.43h42.62v-57.82h-42.62z" stroke="#fff" stroke-opacity="0" fill="#d86613"/><path d="M828.96 314.04h-7.67c-.95 0-1.72-.76-1.72-1.7v-7.66c0-.94.77-1.7 1.7-1.7h7.68c.94 0 1.7.76 1.7 1.7v7.66c0 .94-.76 1.7-1.7 1.7zm-5.96-3.4h4.25v-4.25H823zM828.96 331.9h-7.67c-.95 0-1.72-.75-1.72-1.7v-7.65c0-.94.77-1.7 1.7-1.7h7.68c.94 0 1.7.76 1.7 1.7v7.66c0 .95-.76 1.7-1.7 1.7zm-5.96-3.4h4.25v-4.24H823zM828.96 349.8h-7.67c-.95 0-1.72-.76-1.72-1.7v-7.67c0-.94.77-1.7 1.7-1.7h7.68c.94 0 1.7.76 1.7 1.7v7.67c0 .94-.76 1.7-1.7 1.7zm-5.96-3.4h4.25v-4.27H823zM832.8 306.8h23.05v3.4H832.8v-3.4zM832.8 324.66h23.05v3.4H832.8v-3.4zM832.8 342.55h23.05v3.4H832.8v-3.4z" stroke="#fff" stroke-opacity="0" fill="#d86613"/><path d="M814.93 352.34h-7.72c-.92 0-1.67-.78-1.67-1.68v-61.32c0-.9.75-1.68 1.68-1.68h46.1c.94 0 1.68.78 1.68 1.68v7.7h-3.4v-5.95h-42.63v57.8h5.98z" stroke="#fff" stroke-opacity="0" fill="#d86613"/><path d="M806.74 344.7h-7.7c-.95 0-1.7-.78-1.7-1.68v-61.34c0-.9.75-1.68 1.7-1.68h46.07c.95 0 1.7.78 1.7 1.68v7.7h-3.42v-5.95h-42.62v57.84h5.98z" stroke="#fff" stroke-opacity="0" fill="#d86613"/><path d="M814.93 352.34h-7.72c-.92 0-1.67-.78-1.67-1.68v-61.32c0-.9.75-1.68 1.68-1.68h46.1c.94 0 1.68.78 1.68 1.68v63z" stroke="#fff" stroke-opacity="0" fill="#fff" fill-opacity="0"/><path d="M806.74 344.7h-7.7c-.95 0-1.7-.78-1.7-1.68v-61.34c0-.9.75-1.68 1.7-1.68h46.07c.95 0 1.7.78 1.7 1.68v63.02z" stroke="#fff" stroke-opacity="0" fill="#fff" fill-opacity="0"/><g><use xlink:href="#k" transform="matrix(1,0,0,1,767.35,369) translate(12.074999999999996 14.4)"/><use xlink:href="#l" transform="matrix(1,0,0,1,767.35,369) translate(54.025 14.4)"/><use xlink:href="#m" transform="matrix(1,0,0,1,767.35,369) translate(18.574999999999996 36)"/><use xlink:href="#n" transform="matrix(1,0,0,1,767.35,369) translate(55.475 36)"/><use xlink:href="#o" transform="matrix(1,0,0,1,767.35,369) translate(70.475 36)"/><use xlink:href="#p" transform="matrix(1,0,0,1,767.35,369) translate(21.099999999999994 57.6)"/><use xlink:href="#A" transform="matrix(1,0,0,1,767.35,369) translate(91.95 57.6)"/></g><path d="M295.65 700l-.76-.6c-4.12-2.98-8.17-4.77-13.16-5.84-9.7-1.73-15.44-7-15.44-14.03.12-3.64 1.12-6.62 3.1-9.6 1.24-2.2 2.36-4.06 2.36-6.63-.12-3.58-1.53-6.56-4.23-8.9l-1-.82.83-.96c0-.06 6.86-8.3 8.45-10.44l.9-1.25 1.05 1.07c2.23 2.7 5.1 4.12 8.57 4.3 3.28 0 5.8-1.43 8.33-4.72l1-1.25 1 1.25c2.46 3.3 5.05 4.72 8.33 4.72 3.47-.18 6.34-1.6 8.57-4.3l1.06-1.07.9 1.25c1.58 2.15 8.38 10.38 8.44 10.44l.83.96-1 .83c-2.7 2.34-4.1 5.32-4.23 8.9 0 2.57 1.06 4.42 2.35 6.63 1.98 2.98 2.98 5.96 3.1 9.6 0 7.04-5.75 12.3-15.44 14.03-5 1.07-9.04 2.86-13.15 5.84zM270 653.34c2.76 2.74 4.17 6.02 4.28 9.96-.17 2.93-1 5.43-2.7 7.82-1.4 2.5-2.76 4.83-2.76 8.35 0 8.6 10.22 11.04 13.33 11.64 5.1 1.08 9.2 2.8 13.5 5.8 4.3-3 8.4-4.72 13.5-5.8 3.1-.53 13.33-3.03 13.33-11.57 0-3.58-1.35-5.9-2.76-8.35-1.7-2.45-2.53-4.9-2.7-7.88.1-3.88 1.52-7.22 4.28-9.96-1.58-1.9-5.1-6.15-6.92-8.53-2.6 2.57-5.7 3.88-9.4 4-3.75 0-6.98-1.55-9.33-4.47-2.35 2.92-5.58 4.47-9.33 4.47-3.7-.12-6.8-1.43-9.4-4-1.8 2.4-5.34 6.63-6.92 8.54z" stroke="#fff" stroke-opacity="0" fill="#693cc5"/><path d="M225.3 700h157.35v74.8H225.3z" stroke="#000" stroke-opacity="0" stroke-width="2" fill="#fff" fill-opacity="0"/><g><use xlink:href="#B" transform="matrix(1,0,0,1,230.30000000002332,705) translate(11.574999999999996 14.4)"/><use xlink:href="#C" transform="matrix(1,0,0,1,230.30000000002332,705) translate(11.574999999999996 36)"/><use xlink:href="#D" transform="matrix(1,0,0,1,230.30000000002332,705) translate(12.074999999999996 57.6)"/></g><path d="M545.3 671.17H323.03v-2H545.3z"/><path d="M323.06 671.17h-.43l-.74-1.24-.37-.62-.08-.13h1.6zM560.57 670.17l-14.27 4.63v-9.27z"/><path d="M563.8 670.17l-18.5 6v-12.02zm-16.5 3.25l10.03-3.25-10.03-3.26zM553.55 619.62h.54v2h-2.55V620h.2v-1h1.8zM547.8 621h-5.92v-2h5.92zm-9.87 0H532v-2h5.93zm-9.87 0h-5.93v-2h5.93zm-9.88 0h-5.92v-2h5.92zm-9.87 0h-5.92v-2h5.93zm-9.87 0h-5.92v-2h5.93zm-9.87 0h-5.92v-2h5.92zm-9.87 0h-5.94v-2h5.93zm-9.9 0h-5.9v-2h5.9zm-9.86 0H453v-2h5.94zm-9.87 0h-5.93v-2h5.93zm-8.07-1.8h-2v-5.93h2zm0-9.88h-2v-5.93h2zm0-23.56h-2v-2.1h2zm0-6.06h-2v-5.93h2zm0-9.88h-2v-5.92h2zm0-9.87h-2v-5.93h2zm0-9.87h-2v-5.93h2zm0-9.88h-2v-5.92h2zm0-9.87h-2v-5.93h2zm0-9.88h-2v-5.92h2zm0-9.87h-2v-5.92h2zm0-9.87h-2v-5.92h2zm0-9.87h-2V485h2zm-5.04-4.83h-5.93v-2h5.93zm-9.87 0h-5.94v-2h5.93zm-9.9 0h-5.9v-2h5.9zm-9.86 0h-5.93v-2h5.94zm-9.88 0h-2.96v-2h2.96z"/><path d="M554.54 621.62h-.47v-2h1.58zM392.5 489.64L378.24 485l14.26-4.64z"/><path d="M393.5 491l-18.5-6 18.5-6zm-12.03-6l10.03 3.26v-6.52z"/><g><use xlink:href="#E" transform="matrix(1,0,0,1,410.6484567901235,585.7624052177007) translate(0 10.844444444444445)"/><use xlink:href="#F" transform="matrix(1,0,0,1,410.6484567901235,585.7624052177007) translate(28.579629629629622 10.844444444444445)"/></g><path d="M624.8 615.5h-3.1v-2h3.1zm10.28 0h-6.17v-2h6.18zm5.92 0h-1.8v-1h-.2v-5.37h2zm0-10.48h-2v-6.17h2zm0-10.3h-2v-6.16h2zm0-10.27h-2v-6.18h2zm0-10.3h-2V568h2zm0-10.28h-2v-6.17h2zm0-10.28h-2v-6.18h2zm0-10.3h-2v-6.17h2zm0-24.73h-2v-2h2zm0-6.12h-2v-6.18h2zm0-10.3h-2V496h2zm0-10.28h-2v-6.17h2zm-4.4-5.87h-3.1v-2h3.1z"/><path d="M621.74 615.5h-.2l-1.65-2h1.84zM632.5 489.64L618.24 485l14.26-4.64z"/><path d="M633.5 491l-18.5-6 18.5-6zm-12.03-6l10.03 3.26v-6.52z"/><g><use xlink:href="#E" transform="matrix(1,0,0,1,610.6484567901234,518.5662151653374) translate(0 10.844444444444445)"/><use xlink:href="#G" transform="matrix(1,0,0,1,610.6484567901234,518.5662151653374) translate(28.579629629629622 10.844444444444445)"/></g><path d="M631.83 631h-3.58v-1.45h1V629h2.58zm10.1 0h-6.07v-2h6.06zm10.08 0h-6.05v-2H652zm10.1 0h-6.06v-2h6.06zm10.1 0h-6.07v-2h6.06zm10.08 0h-6.06v-2h6.06zm10.1 0h-6.07v-2h6.07zm10.08 0h-6.06v-2h6.06zm10.1 0h-6.07v-2h6.05zm10.08 0h-6.06v-2h6.06zm10.1 0h-6.07v-2h6.06zm10.08 0h-6.06v-2h6.06zm10.1 0h-6.07v-2h6.06zm8.08 0h-4.06v-2H759v-2h2zm0-8.03h-2v-6.06h2zm0-10.1h-2v-6.05h2zm0-10.08h-2v-6.07h2zm0-10.1h-2v-6.06h2zm0-10.1h-2v-6.05h2zm0-10.08h-2v-6.06h2zm0-10.1h-2v-6.05h2zm0-10.08h-2v-6.06h2zm0-10.1h-2v-.37h2zm0-20.17h-2V516h2zm0-10.1h-2v-6.05h2zm0-10.08h-2v-6.07h2zm0-10.1h-2v-6.06h2zm8.35-5.8h-6.06v-2h6.05zm10.1 0h-6.07v-2h6.06zm7.05 0h-3.03v-2h3.03z"/><path d="M629.53 630.3h-.73l-.04-.22-.58-1.78h1.35zM801.76 485l-14.26 4.64v-9.28z"/><path d="M805 485l-18.5 6v-12zm-16.5 3.26l10.03-3.26-10.03-3.26z"/><g><use xlink:href="#E" transform="matrix(1,0,0,1,730.6484567901234,525.6016773689096) translate(0 10.844444444444445)"/><use xlink:href="#H" transform="matrix(1,0,0,1,730.6484567901234,525.6016773689096) translate(28.579629629629622 10.844444444444445)"/></g><defs><path fill="#248814" d="M137 0h-34L2-248h35l83 218 83-218h36" id="I"/><path fill="#248814" d="M24-231v-30h32v30H24zM24 0v-190h32V0H24" id="J"/><path fill="#248814" d="M114-163C36-179 61-72 57 0H25l-1-190h30c1 12-1 29 2 39 6-27 23-49 58-41v29" id="K"/><path fill="#248814" d="M59-47c-2 24 18 29 38 22v24C64 9 27 4 27-40v-127H5v-23h24l9-43h21v43h35v23H59v120" id="L"/><path fill="#248814" d="M84 4C-5 8 30-112 23-190h32v120c0 31 7 50 39 49 72-2 45-101 50-169h31l1 190h-30c-1-10 1-25-2-33-11 22-28 36-60 37" id="M"/><path fill="#248814" d="M141-36C126-15 110 5 73 4 37 3 15-17 15-53c-1-64 63-63 125-63 3-35-9-54-41-54-24 1-41 7-42 31l-33-3c5-37 33-52 76-52 45 0 72 20 72 64v82c-1 20 7 32 28 27v20c-31 9-61-2-59-35zM48-53c0 20 12 33 32 33 41-3 63-29 60-74-43 2-92-5-92 41" id="N"/><path fill="#248814" d="M24 0v-261h32V0H24" id="O"/><g id="a"><use transform="matrix(0.05,0,0,0.05,0,0)" xlink:href="#I"/><use transform="matrix(0.05,0,0,0.05,11.65,0)" xlink:href="#J"/><use transform="matrix(0.05,0,0,0.05,15.600000000000001,0)" xlink:href="#K"/><use transform="matrix(0.05,0,0,0.05,21.55,0)" xlink:href="#L"/><use transform="matrix(0.05,0,0,0.05,26.55,0)" xlink:href="#M"/><use transform="matrix(0.05,0,0,0.05,36.55,0)" xlink:href="#N"/><use transform="matrix(0.05,0,0,0.05,46.55,0)" xlink:href="#O"/></g><path fill="#248814" d="M30-248c87 1 191-15 191 75 0 78-77 80-158 76V0H30v-248zm33 125c57 0 124 11 124-50 0-59-68-47-124-48v98" id="P"/><path fill="#248814" d="M108 0H70L1-190h34L89-25l56-165h34" id="Q"/><path fill="#248814" d="M100-194c63 0 86 42 84 106H49c0 40 14 67 53 68 26 1 43-12 49-29l28 8c-11 28-37 45-77 45C44 4 14-33 15-96c1-61 26-98 85-98zm52 81c6-60-76-77-97-28-3 7-6 17-6 28h103" id="R"/><g id="b"><use transform="matrix(0.05,0,0,0.05,0,0)" xlink:href="#P"/><use transform="matrix(0.05,0,0,0.05,12,0)" xlink:href="#K"/><use transform="matrix(0.05,0,0,0.05,17.95,0)" xlink:href="#J"/><use transform="matrix(0.05,0,0,0.05,21.9,0)" xlink:href="#Q"/><use transform="matrix(0.05,0,0,0.05,30.899999999999995,0)" xlink:href="#N"/><use transform="matrix(0.05,0,0,0.05,40.9,0)" xlink:href="#L"/><use transform="matrix(0.05,0,0,0.05,45.9,0)" xlink:href="#R"/></g><path fill="#248814" d="M212-179c-10-28-35-45-73-45-59 0-87 40-87 99 0 60 29 101 89 101 43 0 62-24 78-52l27 14C228-24 195 4 139 4 59 4 22-46 18-125c-6-104 99-153 187-111 19 9 31 26 39 46" id="S"/><path fill="#248814" d="M100-194c62-1 85 37 85 99 1 63-27 99-86 99S16-35 15-95c0-66 28-99 85-99zM99-20c44 1 53-31 53-75 0-43-8-75-51-75s-53 32-53 75 10 74 51 75" id="T"/><path fill="#248814" d="M85-194c31 0 48 13 60 33l-1-100h32l1 261h-30c-2-10 0-23-3-31C134-8 116 4 85 4 32 4 16-35 15-94c0-66 23-100 70-100zm9 24c-40 0-46 34-46 75 0 40 6 74 45 74 42 0 51-32 51-76 0-42-9-74-50-73" id="U"/><g id="c"><use transform="matrix(0.05,0,0,0.05,0,0)" xlink:href="#S"/><use transform="matrix(0.05,0,0,0.05,12.950000000000001,0)" xlink:href="#O"/><use transform="matrix(0.05,0,0,0.05,16.900000000000002,0)" xlink:href="#T"/><use transform="matrix(0.05,0,0,0.05,26.900000000000002,0)" xlink:href="#M"/><use transform="matrix(0.05,0,0,0.05,36.900000000000006,0)" xlink:href="#U"/></g><path fill="#147eba" d="M205 0l-28-72H64L36 0H1l101-248h38L239 0h-34zm-38-99l-47-123c-12 45-31 82-46 123h93" id="V"/><path fill="#147eba" d="M108 0H70L1-190h34L89-25l56-165h34" id="W"/><path fill="#147eba" d="M141-36C126-15 110 5 73 4 37 3 15-17 15-53c-1-64 63-63 125-63 3-35-9-54-41-54-24 1-41 7-42 31l-33-3c5-37 33-52 76-52 45 0 72 20 72 64v82c-1 20 7 32 28 27v20c-31 9-61-2-59-35zM48-53c0 20 12 33 32 33 41-3 63-29 60-74-43 2-92-5-92 41" id="X"/><path fill="#147eba" d="M24-231v-30h32v30H24zM24 0v-190h32V0H24" id="Y"/><path fill="#147eba" d="M24 0v-261h32V0H24" id="Z"/><path fill="#147eba" d="M115-194c53 0 69 39 70 98 0 66-23 100-70 100C84 3 66-7 56-30L54 0H23l1-261h32v101c10-23 28-34 59-34zm-8 174c40 0 45-34 45-75 0-40-5-75-45-74-42 0-51 32-51 76 0 43 10 73 51 73" id="aa"/><path fill="#147eba" d="M59-47c-2 24 18 29 38 22v24C64 9 27 4 27-40v-127H5v-23h24l9-43h21v43h35v23H59v120" id="ab"/><path fill="#147eba" d="M179-190L93 31C79 59 56 82 12 73V49c39 6 53-20 64-50L1-190h34L92-34l54-156h33" id="ac"/><g id="d"><use transform="matrix(0.05,0,0,0.05,0,0)" xlink:href="#V"/><use transform="matrix(0.05,0,0,0.05,11.65,0)" xlink:href="#W"/><use transform="matrix(0.05,0,0,0.05,20.65,0)" xlink:href="#X"/><use transform="matrix(0.05,0,0,0.05,30.649999999999995,0)" xlink:href="#Y"/><use transform="matrix(0.05,0,0,0.05,34.6,0)" xlink:href="#Z"/><use transform="matrix(0.05,0,0,0.05,38.550000000000004,0)" xlink:href="#X"/><use transform="matrix(0.05,0,0,0.05,48.550000000000004,0)" xlink:href="#aa"/><use transform="matrix(0.05,0,0,0.05,58.550000000000004,0)" xlink:href="#Y"/><use transform="matrix(0.05,0,0,0.05,62.5,0)" xlink:href="#Z"/><use transform="matrix(0.05,0,0,0.05,66.45,0)" xlink:href="#Y"/><use transform="matrix(0.05,0,0,0.05,70.4,0)" xlink:href="#ab"/><use transform="matrix(0.05,0,0,0.05,75.4,0)" xlink:href="#ac"/></g><path fill="#147eba" d="M209 0H11v-25l151-195H24v-28h176v25L50-27h159V0" id="ad"/><path fill="#147eba" d="M100-194c62-1 85 37 85 99 1 63-27 99-86 99S16-35 15-95c0-66 28-99 85-99zM99-20c44 1 53-31 53-75 0-43-8-75-51-75s-53 32-53 75 10 74 51 75" id="ae"/><path fill="#147eba" d="M117-194c89-4 53 116 60 194h-32v-121c0-31-8-49-39-48C34-167 62-67 57 0H25l-1-190h30c1 10-1 24 2 32 11-22 29-35 61-36" id="af"/><path fill="#147eba" d="M100-194c63 0 86 42 84 106H49c0 40 14 67 53 68 26 1 43-12 49-29l28 8c-11 28-37 45-77 45C44 4 14-33 15-96c1-61 26-98 85-98zm52 81c6-60-76-77-97-28-3 7-6 17-6 28h103" id="ag"/><g id="e"><use transform="matrix(0.05,0,0,0.05,0,0)" xlink:href="#ad"/><use transform="matrix(0.05,0,0,0.05,10.950000000000001,0)" xlink:href="#ae"/><use transform="matrix(0.05,0,0,0.05,20.950000000000003,0)" xlink:href="#af"/><use transform="matrix(0.05,0,0,0.05,30.950000000000003,0)" xlink:href="#ag"/></g><use transform="matrix(0.05,0,0,0.05,0,0)" xlink:href="#V" id="f"/><path fill="#147eba" d="M160-131c35 5 61 23 61 61C221 17 115-2 30 0v-248c76 3 177-17 177 60 0 33-19 50-47 57zm-97-11c50-1 110 9 110-42 0-47-63-36-110-37v79zm0 115c55-2 124 14 124-45 0-56-70-42-124-44v89" id="ah"/><use transform="matrix(0.05,0,0,0.05,0,0)" xlink:href="#ah" id="g"/><path fill="#147eba" d="M212-179c-10-28-35-45-73-45-59 0-87 40-87 99 0 60 29 101 89 101 43 0 62-24 78-52l27 14C228-24 195 4 139 4 59 4 22-46 18-125c-6-104 99-153 187-111 19 9 31 26 39 46" id="ai"/><use transform="matrix(0.05,0,0,0.05,0,0)" xlink:href="#ai" id="h"/><path fill="#147eba" d="M30-248c87 1 191-15 191 75 0 78-77 80-158 76V0H30v-248zm33 125c57 0 124 11 124-50 0-59-68-47-124-48v98" id="aj"/><path fill="#147eba" d="M114-163C36-179 61-72 57 0H25l-1-190h30c1 12-1 29 2 39 6-27 23-49 58-41v29" id="ak"/><g id="i"><use transform="matrix(0.043827160493827164,0,0,0.043827160493827164,0,0)" xlink:href="#aj"/><use transform="matrix(0.043827160493827164,0,0,0.043827160493827164,10.518518518518519,0)" xlink:href="#ak"/><use transform="matrix(0.043827160493827164,0,0,0.043827160493827164,15.733950617283952,0)" xlink:href="#Y"/><use transform="matrix(0.043827160493827164,0,0,0.043827160493827164,19.196296296296296,0)" xlink:href="#W"/><use transform="matrix(0.043827160493827164,0,0,0.043827160493827164,27.085185185185185,0)" xlink:href="#X"/><use transform="matrix(0.043827160493827164,0,0,0.043827160493827164,35.85061728395062,0)" xlink:href="#ab"/><use transform="matrix(0.043827160493827164,0,0,0.043827160493827164,40.233333333333334,0)" xlink:href="#ag"/></g><path fill="#147eba" d="M185-189c-5-48-123-54-124 2 14 75 158 14 163 119 3 78-121 87-175 55-17-10-28-26-33-46l33-7c5 56 141 63 141-1 0-78-155-14-162-118-5-82 145-84 179-34 5 7 8 16 11 25" id="al"/><path fill="#147eba" d="M84 4C-5 8 30-112 23-190h32v120c0 31 7 50 39 49 72-2 45-101 50-169h31l1 190h-30c-1-10 1-25-2-33-11 22-28 36-60 37" id="am"/><g id="j"><use transform="matrix(0.043827160493827164,0,0,0.043827160493827164,0,0)" xlink:href="#al"/><use transform="matrix(0.043827160493827164,0,0,0.043827160493827164,10.518518518518519,0)" xlink:href="#am"/><use transform="matrix(0.043827160493827164,0,0,0.043827160493827164,19.28395061728395,0)" xlink:href="#aa"/><use transform="matrix(0.043827160493827164,0,0,0.043827160493827164,28.04938271604938,0)" xlink:href="#af"/><use transform="matrix(0.043827160493827164,0,0,0.043827160493827164,36.81481481481481,0)" xlink:href="#ag"/><use transform="matrix(0.043827160493827164,0,0,0.043827160493827164,45.58024691358024,0)" xlink:href="#ab"/></g><path d="M30 0v-248h187v28H63v79h144v27H63v87h162V0H30" id="an"/><path d="M212-179c-10-28-35-45-73-45-59 0-87 40-87 99 0 60 29 101 89 101 43 0 62-24 78-52l27 14C228-24 195 4 139 4 59 4 22-46 18-125c-6-104 99-153 187-111 19 9 31 26 39 46" id="ao"/><path d="M185-189c-5-48-123-54-124 2 14 75 158 14 163 119 3 78-121 87-175 55-17-10-28-26-33-46l33-7c5 56 141 63 141-1 0-78-155-14-162-118-5-82 145-84 179-34 5 7 8 16 11 25" id="ap"/><g id="k"><use transform="matrix(0.05,0,0,0.05,0,0)" xlink:href="#an"/><use transform="matrix(0.05,0,0,0.05,12,0)" xlink:href="#ao"/><use transform="matrix(0.05,0,0,0.05,24.950000000000003,0)" xlink:href="#ap"/></g><path d="M100-194c63 0 86 42 84 106H49c0 40 14 67 53 68 26 1 43-12 49-29l28 8c-11 28-37 45-77 45C44 4 14-33 15-96c1-61 26-98 85-98zm52 81c6-60-76-77-97-28-3 7-6 17-6 28h103" id="aq"/><path d="M114-163C36-179 61-72 57 0H25l-1-190h30c1 12-1 29 2 39 6-27 23-49 58-41v29" id="ar"/><path d="M108 0H70L1-190h34L89-25l56-165h34" id="as"/><path d="M24-231v-30h32v30H24zM24 0v-190h32V0H24" id="at"/><path d="M96-169c-40 0-48 33-48 73s9 75 48 75c24 0 41-14 43-38l32 2c-6 37-31 61-74 61-59 0-76-41-82-99-10-93 101-131 147-64 4 7 5 14 7 22l-32 3c-4-21-16-35-41-35" id="au"/><g id="l"><use transform="matrix(0.05,0,0,0.05,0,0)" xlink:href="#ap"/><use transform="matrix(0.05,0,0,0.05,12,0)" xlink:href="#aq"/><use transform="matrix(0.05,0,0,0.05,22,0)" xlink:href="#ar"/><use transform="matrix(0.05,0,0,0.05,27.950000000000003,0)" xlink:href="#as"/><use transform="matrix(0.05,0,0,0.05,36.95,0)" xlink:href="#at"/><use transform="matrix(0.05,0,0,0.05,40.900000000000006,0)" xlink:href="#au"/><use transform="matrix(0.05,0,0,0.05,49.900000000000006,0)" xlink:href="#aq"/></g><path d="M206 0h-36l-40-164L89 0H53L-1-190h32L70-26l43-164h34l41 164 42-164h31" id="av"/><path d="M59-47c-2 24 18 29 38 22v24C64 9 27 4 27-40v-127H5v-23h24l9-43h21v43h35v23H59v120" id="aw"/><path d="M106-169C34-169 62-67 57 0H25v-261h32l-1 103c12-21 28-36 61-36 89 0 53 116 60 194h-32v-121c2-32-8-49-39-48" id="ax"/><g id="m"><use transform="matrix(0.05,0,0,0.05,0,0)" xlink:href="#av"/><use transform="matrix(0.05,0,0,0.05,12.950000000000001,0)" xlink:href="#at"/><use transform="matrix(0.05,0,0,0.05,16.900000000000002,0)" xlink:href="#aw"/><use transform="matrix(0.05,0,0,0.05,21.900000000000002,0)" xlink:href="#ax"/></g><path d="M27 0v-27h64v-190l-56 39v-29l58-41h29v221h61V0H27" id="ay"/><use transform="matrix(0.05,0,0,0.05,0,0)" xlink:href="#ay" id="n"/><path d="M127-220V0H93v-220H8v-28h204v28h-85" id="az"/><path d="M141-36C126-15 110 5 73 4 37 3 15-17 15-53c-1-64 63-63 125-63 3-35-9-54-41-54-24 1-41 7-42 31l-33-3c5-37 33-52 76-52 45 0 72 20 72 64v82c-1 20 7 32 28 27v20c-31 9-61-2-59-35zM48-53c0 20 12 33 32 33 41-3 63-29 60-74-43 2-92-5-92 41" id="aA"/><path d="M135-143c-3-34-86-38-87 0 15 53 115 12 119 90S17 21 10-45l28-5c4 36 97 45 98 0-10-56-113-15-118-90-4-57 82-63 122-42 12 7 21 19 24 35" id="aB"/><path d="M143 0L79-87 56-68V0H24v-261h32v163l83-92h37l-77 82L181 0h-38" id="aC"/><g id="o"><use transform="matrix(0.05,0,0,0.05,0,0)" xlink:href="#az"/><use transform="matrix(0.05,0,0,0.05,8.950000000000001,0)" xlink:href="#aA"/><use transform="matrix(0.05,0,0,0.05,18.950000000000003,0)" xlink:href="#aB"/><use transform="matrix(0.05,0,0,0.05,27.950000000000003,0)" xlink:href="#aC"/></g><path d="M233-177c-1 41-23 64-60 70L243 0h-38l-65-103H63V0H30v-248c88 3 205-21 203 71zM63-129c60-2 137 13 137-47 0-61-80-42-137-45v92" id="aD"/><path d="M177-190C167-65 218 103 67 71c-23-6-38-20-44-43l32-5c15 47 100 32 89-28v-30C133-14 115 1 83 1 29 1 15-40 15-95c0-56 16-97 71-98 29-1 48 16 59 35 1-10 0-23 2-32h30zM94-22c36 0 50-32 50-73 0-42-14-75-50-75-39 0-46 34-46 75s6 73 46 73" id="aE"/><path d="M179-190L93 31C79 59 56 82 12 73V49c39 6 53-20 64-50L1-190h34L92-34l54-156h33" id="aF"/><g id="p"><use transform="matrix(0.05,0,0,0.05,0,0)" xlink:href="#aD"/><use transform="matrix(0.05,0,0,0.05,12.950000000000001,0)" xlink:href="#aq"/><use transform="matrix(0.05,0,0,0.05,22.950000000000003,0)" xlink:href="#aE"/><use transform="matrix(0.05,0,0,0.05,32.95,0)" xlink:href="#at"/><use transform="matrix(0.05,0,0,0.05,36.900000000000006,0)" xlink:href="#aB"/><use transform="matrix(0.05,0,0,0.05,45.900000000000006,0)" xlink:href="#aw"/><use transform="matrix(0.05,0,0,0.05,50.900000000000006,0)" xlink:href="#ar"/><use transform="matrix(0.05,0,0,0.05,56.85,0)" xlink:href="#aF"/></g><path d="M205 0l-28-72H64L36 0H1l101-248h38L239 0h-34zm-38-99l-47-123c-12 45-31 82-46 123h93" id="aG"/><use transform="matrix(0.05,0,0,0.05,0,0)" xlink:href="#aG" id="q"/><path d="M190 0L58-211 59 0H30v-248h39L202-35l-2-213h31V0h-41" id="aH"/><path d="M100-194c62-1 85 37 85 99 1 63-27 99-86 99S16-35 15-95c0-66 28-99 85-99zM99-20c44 1 53-31 53-75 0-43-8-75-51-75s-53 32-53 75 10 74 51 75" id="aI"/><g id="r"><use transform="matrix(0.05,0,0,0.05,0,0)" xlink:href="#aH"/><use transform="matrix(0.05,0,0,0.05,12.950000000000001,0)" xlink:href="#aq"/><use transform="matrix(0.05,0,0,0.05,22.950000000000003,0)" xlink:href="#aw"/><use transform="matrix(0.05,0,0,0.05,27.950000000000003,0)" xlink:href="#av"/><use transform="matrix(0.05,0,0,0.05,40.900000000000006,0)" xlink:href="#aI"/><use transform="matrix(0.05,0,0,0.05,50.900000000000006,0)" xlink:href="#ar"/><use transform="matrix(0.05,0,0,0.05,56.85,0)" xlink:href="#aC"/></g><path d="M30 0v-248h33v221h125V0H30" id="aJ"/><path d="M85-194c31 0 48 13 60 33l-1-100h32l1 261h-30c-2-10 0-23-3-31C134-8 116 4 85 4 32 4 16-35 15-94c0-66 23-100 70-100zm9 24c-40 0-46 34-46 75 0 40 6 74 45 74 42 0 51-32 51-76 0-42-9-74-50-73" id="aK"/><g id="s"><use transform="matrix(0.05,0,0,0.05,0,0)" xlink:href="#aJ"/><use transform="matrix(0.05,0,0,0.05,10,0)" xlink:href="#aI"/><use transform="matrix(0.05,0,0,0.05,20,0)" xlink:href="#aA"/><use transform="matrix(0.05,0,0,0.05,30,0)" xlink:href="#aK"/></g><path d="M160-131c35 5 61 23 61 61C221 17 115-2 30 0v-248c76 3 177-17 177 60 0 33-19 50-47 57zm-97-11c50-1 110 9 110-42 0-47-63-36-110-37v79zm0 115c55-2 124 14 124-45 0-56-70-42-124-44v89" id="aL"/><path d="M24 0v-261h32V0H24" id="aM"/><path d="M117-194c89-4 53 116 60 194h-32v-121c0-31-8-49-39-48C34-167 62-67 57 0H25l-1-190h30c1 10-1 24 2 32 11-22 29-35 61-36" id="aN"/><g id="t"><use transform="matrix(0.05,0,0,0.05,0,0)" xlink:href="#aL"/><use transform="matrix(0.05,0,0,0.05,12,0)" xlink:href="#aA"/><use transform="matrix(0.05,0,0,0.05,22,0)" xlink:href="#aM"/><use transform="matrix(0.05,0,0,0.05,25.950000000000003,0)" xlink:href="#aA"/><use transform="matrix(0.05,0,0,0.05,35.95,0)" xlink:href="#aN"/><use transform="matrix(0.05,0,0,0.05,45.95,0)" xlink:href="#au"/><use transform="matrix(0.05,0,0,0.05,54.95,0)" xlink:href="#aq"/><use transform="matrix(0.05,0,0,0.05,64.95,0)" xlink:href="#ar"/></g><path d="M30-248c87 1 191-15 191 75 0 78-77 80-158 76V0H30v-248zm33 125c57 0 124 11 124-50 0-59-68-47-124-48v98" id="aO"/><g id="v"><use transform="matrix(0.043827160493827164,0,0,0.043827160493827164,0,0)" xlink:href="#aO"/><use transform="matrix(0.043827160493827164,0,0,0.043827160493827164,10.518518518518519,0)" xlink:href="#aI"/><use transform="matrix(0.043827160493827164,0,0,0.043827160493827164,19.28395061728395,0)" xlink:href="#ar"/><use transform="matrix(0.043827160493827164,0,0,0.043827160493827164,24.499382716049386,0)" xlink:href="#aw"/></g><path d="M134-131c28 9 52 24 51 62-1 50-34 73-85 73S17-19 16-69c0-36 21-54 49-61-75-25-45-126 34-121 46 3 78 18 79 63 0 33-17 51-44 57zm-34-11c31 1 46-15 46-44 0-28-17-43-47-42-29 0-46 13-45 42 1 28 16 44 46 44zm1 122c35 0 51-18 51-52 0-30-18-46-53-46-33 0-51 17-51 47 0 34 19 51 53 51" id="aP"/><path d="M101-251c68 0 85 55 85 127S166 4 100 4C33 4 14-52 14-124c0-73 17-127 87-127zm-1 229c47 0 54-49 54-102s-4-102-53-102c-51 0-55 48-55 102 0 53 5 102 54 102" id="aQ"/><g id="w"><use transform="matrix(0.043827160493827164,0,0,0.043827160493827164,0,0)" xlink:href="#aP"/><use transform="matrix(0.043827160493827164,0,0,0.043827160493827164,8.765432098765432,0)" xlink:href="#aQ"/></g><g id="x"><use transform="matrix(0.043827160493827164,0,0,0.043827160493827164,0,0)" xlink:href="#aO"/><use transform="matrix(0.043827160493827164,0,0,0.043827160493827164,10.518518518518519,0)" xlink:href="#aI"/><use transform="matrix(0.043827160493827164,0,0,0.043827160493827164,19.28395061728395,0)" xlink:href="#ar"/><use transform="matrix(0.043827160493827164,0,0,0.043827160493827164,24.499382716049386,0)" xlink:href="#aw"/></g><path d="M33 0v-248h34V0H33" id="aR"/><g id="y"><use transform="matrix(0.05,0,0,0.05,0,0)" xlink:href="#an"/><use transform="matrix(0.05,0,0,0.05,12,0)" xlink:href="#aH"/><use transform="matrix(0.05,0,0,0.05,24.950000000000003,0)" xlink:href="#aR"/></g><use transform="matrix(0.05,0,0,0.05,0,0)" xlink:href="#aL" id="z"/><use transform="matrix(0.05,0,0,0.05,0,0)" xlink:href="#ao" id="A"/><path d="M33 0v-38h34V0H33" id="aS"/><path d="M84 4C-5 8 30-112 23-190h32v120c0 31 7 50 39 49 72-2 45-101 50-169h31l1 190h-30c-1-10 1-25-2-33-11 22-28 36-60 37" id="aT"/><g id="B"><use transform="matrix(0.05,0,0,0.05,0,0)" xlink:href="#aA"/><use transform="matrix(0.05,0,0,0.05,10,0)" xlink:href="#aS"/><use transform="matrix(0.05,0,0,0.05,15,0)" xlink:href="#aq"/><use transform="matrix(0.05,0,0,0.05,25,0)" xlink:href="#aT"/><use transform="matrix(0.05,0,0,0.05,35,0)" xlink:href="#ar"/><use transform="matrix(0.05,0,0,0.05,40.95,0)" xlink:href="#aq"/><use transform="matrix(0.05,0,0,0.05,50.95,0)" xlink:href="#aC"/><use transform="matrix(0.05,0,0,0.05,59.95,0)" xlink:href="#aA"/><use transform="matrix(0.05,0,0,0.05,69.95,0)" xlink:href="#aS"/><use transform="matrix(0.05,0,0,0.05,74.95,0)" xlink:href="#aB"/><use transform="matrix(0.05,0,0,0.05,83.95,0)" xlink:href="#aq"/><use transform="matrix(0.05,0,0,0.05,93.95,0)" xlink:href="#ar"/><use transform="matrix(0.05,0,0,0.05,99.9,0)" xlink:href="#as"/><use transform="matrix(0.05,0,0,0.05,108.9,0)" xlink:href="#aq"/><use transform="matrix(0.05,0,0,0.05,118.9,0)" xlink:href="#ar"/></g><path d="M115-194c53 0 69 39 70 98 0 66-23 100-70 100C84 3 66-7 56-30L54 0H23l1-261h32v101c10-23 28-34 59-34zm-8 174c40 0 45-34 45-75 0-40-5-75-45-74-42 0-51 32-51 76 0 43 10 73 51 73" id="aU"/><g id="C"><use transform="matrix(0.05,0,0,0.05,0,0)" xlink:href="#aU"/><use transform="matrix(0.05,0,0,0.05,10,0)" xlink:href="#aS"/><use transform="matrix(0.05,0,0,0.05,15,0)" xlink:href="#aq"/><use transform="matrix(0.05,0,0,0.05,25,0)" xlink:href="#aT"/><use transform="matrix(0.05,0,0,0.05,35,0)" xlink:href="#ar"/><use transform="matrix(0.05,0,0,0.05,40.95,0)" xlink:href="#aq"/><use transform="matrix(0.05,0,0,0.05,50.95,0)" xlink:href="#aC"/><use transform="matrix(0.05,0,0,0.05,59.95,0)" xlink:href="#aA"/><use transform="matrix(0.05,0,0,0.05,69.95,0)" xlink:href="#aS"/><use transform="matrix(0.05,0,0,0.05,74.95,0)" xlink:href="#aB"/><use transform="matrix(0.05,0,0,0.05,83.95,0)" xlink:href="#aq"/><use transform="matrix(0.05,0,0,0.05,93.95,0)" xlink:href="#ar"/><use transform="matrix(0.05,0,0,0.05,99.9,0)" xlink:href="#as"/><use transform="matrix(0.05,0,0,0.05,108.9,0)" xlink:href="#aq"/><use transform="matrix(0.05,0,0,0.05,118.9,0)" xlink:href="#ar"/></g><g id="D"><use transform="matrix(0.05,0,0,0.05,0,0)" xlink:href="#au"/><use transform="matrix(0.05,0,0,0.05,9,0)" xlink:href="#aS"/><use transform="matrix(0.05,0,0,0.05,14,0)" xlink:href="#aq"/><use transform="matrix(0.05,0,0,0.05,24,0)" xlink:href="#aT"/><use transform="matrix(0.05,0,0,0.05,34,0)" xlink:href="#ar"/><use transform="matrix(0.05,0,0,0.05,39.95,0)" xlink:href="#aq"/><use transform="matrix(0.05,0,0,0.05,49.95,0)" xlink:href="#aC"/><use transform="matrix(0.05,0,0,0.05,58.95,0)" xlink:href="#aA"/><use transform="matrix(0.05,0,0,0.05,68.95,0)" xlink:href="#aS"/><use transform="matrix(0.05,0,0,0.05,73.95,0)" xlink:href="#aB"/><use transform="matrix(0.05,0,0,0.05,82.95,0)" xlink:href="#aq"/><use transform="matrix(0.05,0,0,0.05,92.95,0)" xlink:href="#ar"/><use transform="matrix(0.05,0,0,0.05,98.9,0)" xlink:href="#as"/><use transform="matrix(0.05,0,0,0.05,107.9,0)" xlink:href="#aq"/><use transform="matrix(0.05,0,0,0.05,117.9,0)" xlink:href="#ar"/></g><g id="E"><use transform="matrix(0.03765432098765432,0,0,0.03765432098765432,0,0)" xlink:href="#aO"/><use transform="matrix(0.03765432098765432,0,0,0.03765432098765432,9.037037037037036,0)" xlink:href="#aI"/><use transform="matrix(0.03765432098765432,0,0,0.03765432098765432,16.5679012345679,0)" xlink:href="#ar"/><use transform="matrix(0.03765432098765432,0,0,0.03765432098765432,21.048765432098765,0)" xlink:href="#aw"/></g><path d="M99-251c64 0 84 50 84 122C183-37 130 33 47-8c-14-7-20-23-25-40l30-5c6 39 69 39 84 7 9-19 16-44 16-74-10 22-31 35-62 35-49 0-73-33-73-83 0-54 28-83 82-83zm-1 141c31-1 51-18 51-49 0-36-14-67-51-67-34 0-49 23-49 58 0 34 15 58 49 58" id="aV"/><g id="F"><use transform="matrix(0.03765432098765432,0,0,0.03765432098765432,0,0)" xlink:href="#aV"/><use transform="matrix(0.03765432098765432,0,0,0.03765432098765432,7.530864197530864,0)" xlink:href="#aV"/><use transform="matrix(0.03765432098765432,0,0,0.03765432098765432,15.061728395061728,0)" xlink:href="#aV"/><use transform="matrix(0.03765432098765432,0,0,0.03765432098765432,22.59259259259259,0)" xlink:href="#ay"/></g><path d="M101-251c82-7 93 87 43 132L82-64C71-53 59-42 53-27h129V0H18c2-99 128-94 128-182 0-28-16-43-45-43s-46 15-49 41l-32-3c6-41 34-60 81-64" id="aW"/><g id="G"><use transform="matrix(0.03765432098765432,0,0,0.03765432098765432,0,0)" xlink:href="#aV"/><use transform="matrix(0.03765432098765432,0,0,0.03765432098765432,7.530864197530864,0)" xlink:href="#aV"/><use transform="matrix(0.03765432098765432,0,0,0.03765432098765432,15.061728395061728,0)" xlink:href="#aV"/><use transform="matrix(0.03765432098765432,0,0,0.03765432098765432,22.59259259259259,0)" xlink:href="#aW"/></g><path d="M126-127c33 6 58 20 58 59 0 88-139 92-164 29-3-8-5-16-6-25l32-3c6 27 21 44 54 44 32 0 52-15 52-46 0-38-36-46-79-43v-28c39 1 72-4 72-42 0-27-17-43-46-43-28 0-47 15-49 41l-32-3c6-42 35-63 81-64 48-1 79 21 79 65 0 36-21 52-52 59" id="aX"/><g id="H"><use transform="matrix(0.03765432098765432,0,0,0.03765432098765432,0,0)" xlink:href="#aV"/><use transform="matrix(0.03765432098765432,0,0,0.03765432098765432,7.530864197530864,0)" xlink:href="#aV"/><use transform="matrix(0.03765432098765432,0,0,0.03765432098765432,15.061728395061728,0)" xlink:href="#aV"/><use transform="matrix(0.03765432098765432,0,0,0.03765432098765432,22.59259259259259,0)" xlink:href="#aX"/></g></defs></g></svg>